<svg height="512pt" viewBox="-30 0 512 512" width="512pt" xmlns="http://www.w3.org/2000/svg"><path d="m349.066406 43.175781v425.648438c0 18.214843-14.761718 32.964843-32.964844 32.964843h-304.585937c-6.363281 0-11.515625-5.148437-11.515625-11.515624v-468.546876c0-6.367187 5.152344-11.515624 11.515625-11.515624h304.585937c18.203126 0 32.964844 14.75 32.964844 32.964843zm0 0" fill="#fe621d"/><path d="m349.066406 43.171875v425.65625c0 18.203125-14.761718 32.960937-32.964844 32.960937h-30.726562c18.203125 0 32.972656-14.757812 32.972656-32.960937v-425.65625c0-18.203125-14.769531-32.960937-32.972656-32.960937h30.726562c18.207032 0 32.964844 14.757812 32.964844 32.960937zm0 0" fill="#e24d10"/><path d="m270.15625 11.515625v488.964844c0 6.359375-5.152344 11.519531-11.519531 11.519531h-32.574219c-6.355469 0-11.515625-5.160156-11.515625-11.519531v-488.964844c0-6.355469 5.160156-11.515625 11.515625-11.515625h32.574219c6.367187 0 11.519531 5.160156 11.519531 11.515625zm0 0" fill="#ffdf4a"/><path d="m35.46875 10.210938h15.453125v491.578124h-15.453125zm0 0" fill="#e24d10"/><path d="m449.5 436.300781-15.894531 34.203125c-2.332031 5.023438-9.476563 5.023438-11.808594 0l-15.894531-34.203125c-1.746094-3.757812-2.648438-7.851562-2.648438-11.992187v-375.058594c0-6.363281 5.15625-11.519531 11.519532-11.519531h25.855468c6.363282 0 11.519532 5.15625 11.519532 11.519531v375.058594c0 4.140625-.902344 8.238281-2.648438 11.992187zm0 0" fill="#39aaff"/><path d="m452.144531 49.253906v375.058594c0 4.140625-.894531 8.230469-2.648437 11.988281l-15.894532 34.203125c-2.328124 5.027344-9.464843 5.027344-11.804687 0l-2.339844-5.027344 13.558594-29.175781c1.75-3.757812 2.644531-7.847656 2.644531-11.988281v-375.058594c0-6.367187-5.148437-11.527344-11.515625-11.527344h16.484375c6.367188 0 11.515625 5.160157 11.515625 11.527344zm0 0" fill="#2584f6"/><path d="m403.253906 112.226562h48.890625v104.265626h-48.890625zm0 0" fill="#4d78a0"/><path d="m435.664062 112.226562h16.480469v104.265626h-16.480469zm0 0" fill="#336786"/><path d="m452.144531 424.3125c0 4.140625-.894531 8.230469-2.648437 11.988281l-15.894532 34.203125c-2.328124 5.027344-9.464843 5.027344-11.804687 0l-2.339844-5.027344-13.558593-29.175781c-1.738282-3.757812-2.644532-7.847656-2.644532-11.988281zm0 0" fill="#fecba9"/><path d="m452.144531 424.3125c0 4.140625-.894531 8.230469-2.648437 11.988281l-15.894532 34.203125c-2.328124 5.027344-9.464843 5.027344-11.804687 0l-2.339844-5.027344 13.558594-29.175781c1.75-3.757812 2.644531-7.847656 2.644531-11.988281zm0 0" fill="#ffb38d"/><path d="m234.625 0h15.453125v512h-15.453125zm0 0" fill="#fff0d0"/></svg>